# xmcd
#
# Track frame offsets: 
#        150
#        40230
#        49852
#        55815
#        65780
#        87627
#        101225
#        130322
#        152050
#        162675
#        171895
#        180905
#        193312
#        205759
#        218350
#
# Disc length: 3075 seconds
#
# Revision: 0
# Processed by: cddbd v1.5.2PL0 Copyright (c) Steve Scherf et al.
# Submitted via: ExactAudioCopy v0.99pb3
#
DISCID=de0c010f
DTITLE=James Brown - The Natural Collection [Disc 1]
DYEAR=1996
DGENRE=Soul
TTITLE0=It's A Man's, Man's World
TTITLE1=Papa's Got A Brand New Bag
TTITLE2=Hot Pants
TTITLE3=I Can't Stand It
TTITLE4=It's Too Funky In Here
TTITLE5=Get On The Good Foot
TTITLE6=Super Bad
TTITLE7=Jam (1980)
TTITLE8=And I Do Just What I Want
TTITLE9=Tell Me What You're Gonna Do
TTITLE10=Love Don't Love Nobody
TTITLE11=Come Over Hear
TTITLE12=I Don't Mind
TTITLE13=I Love You Yes I Do
TTITLE14=Just You And Me Darling
EXTD=
EXTT0=
EXTT1=
EXTT2=
EXTT3=
EXTT4=
EXTT5=
EXTT6=
EXTT7=
EXTT8=
EXTT9=
EXTT10=
EXTT11=
EXTT12=
EXTT13=
EXTT14=
PLAYORDER=
